<?xml version="1.0" encoding="UTF-8" standalone="no"?><svg xmlns="http://www.w3.org/2000/svg" xmlns:xlink="http://www.w3.org/1999/xlink" contentScriptType="application/ecmascript" contentStyleType="text/css" height="527px" preserveAspectRatio="none" style="width:710px;height:527px;" version="1.1" viewBox="0 0 710 527" width="710px" zoomAndPan="magnify"><defs><filter height="300%" id="f1plk6boguj3f5" width="300%" x="-1" y="-1"><feGaussianBlur result="blurOut" stdDeviation="2.0"/><feColorMatrix in="blurOut" result="blurOut2" type="matrix" values="0 0 0 0 0 0 0 0 0 0 0 0 0 0 0 0 0 0 .4 0"/><feOffset dx="4.0" dy="4.0" in="blurOut2" result="blurOut3"/><feBlend in="SourceGraphic" in2="blurOut3" mode="normal"/></filter></defs><g><ellipse cx="288.625" cy="20" fill="#000000" filter="url(#f1plk6boguj3f5)" rx="10" ry="10" style="stroke:none;stroke-width:1.0;"/><rect fill="#FEFECE" filter="url(#f1plk6boguj3f5)" height="36.3887" rx="12.5" ry="12.5" style="stroke:#A80036;stroke-width:1.5;" width="92" x="242.625" y="50"/><text fill="#000000" font-family="sans-serif" font-size="12" lengthAdjust="spacing" textLength="72" x="252.625" y="73.752">传入填充的值</text><polygon fill="#FEFECE" filter="url(#f1plk6boguj3f5)" points="252.625,106.3887,324.625,106.3887,336.625,118.3887,324.625,130.3887,252.625,130.3887,240.625,118.3887,252.625,106.3887" style="stroke:#A80036;stroke-width:1.5;"/><text fill="#000000" font-family="sans-serif" font-size="11" lengthAdjust="spacing" textLength="72" x="252.625" y="123.4832">传入的值为空?</text><text fill="#000000" font-family="sans-serif" font-size="11" lengthAdjust="spacing" textLength="19" x="221.625" y="115.9717">true</text><text fill="#000000" font-family="sans-serif" font-size="11" lengthAdjust="spacing" textLength="24" x="336.625" y="115.9717">false</text><rect fill="#FF0000" filter="url(#f1plk6boguj3f5)" height="36.3887" rx="12.5" ry="12.5" style="stroke:#A80036;stroke-width:1.5;" width="200" x="11" y="140.3887"/><text fill="#000000" font-family="sans-serif" font-size="12" lengthAdjust="spacing" textLength="180" x="21" y="164.1406">返回生成病例缺少必要参数的提示</text><ellipse cx="111" cy="206.7773" fill="#FFFFFF" filter="url(#f1plk6boguj3f5)" rx="10" ry="10" style="stroke:#000000;stroke-width:1.5;"/><line style="stroke:#000000;stroke-width:2.5;" x1="104.8128" x2="117.1872" y1="200.5902" y2="212.9645"/><line style="stroke:#000000;stroke-width:2.5;" x1="117.1872" x2="104.8128" y1="200.5902" y2="212.9645"/><rect fill="#FEFECE" filter="url(#f1plk6boguj3f5)" height="36.3887" rx="12.5" ry="12.5" style="stroke:#A80036;stroke-width:1.5;" width="176" x="408.25" y="140.3887"/><text fill="#000000" font-family="sans-serif" font-size="12" lengthAdjust="spacing" textLength="156" x="418.25" y="164.1406">调用方法直接生成html字符串</text><rect fill="#FEFECE" filter="url(#f1plk6boguj3f5)" height="36.3887" rx="12.5" ry="12.5" style="stroke:#A80036;stroke-width:1.5;" width="137" x="427.75" y="196.7773"/><text fill="#000000" font-family="sans-serif" font-size="12" lengthAdjust="spacing" textLength="117" x="437.75" y="220.5293">输出字符串到htm文件</text><polygon fill="#FEFECE" filter="url(#f1plk6boguj3f5)" points="460.25,253.166,532.25,253.166,544.25,265.166,532.25,277.166,460.25,277.166,448.25,265.166,460.25,253.166" style="stroke:#A80036;stroke-width:1.5;"/><text fill="#000000" font-family="sans-serif" font-size="11" lengthAdjust="spacing" textLength="72" x="460.25" y="270.2605">保存文件成功?</text><text fill="#000000" font-family="sans-serif" font-size="11" lengthAdjust="spacing" textLength="19" x="429.25" y="262.749">true</text><text fill="#000000" font-family="sans-serif" font-size="11" lengthAdjust="spacing" textLength="24" x="544.25" y="262.749">false</text><rect fill="#FEFECE" filter="url(#f1plk6boguj3f5)" height="36.3887" rx="12.5" ry="12.5" style="stroke:#A80036;stroke-width:1.5;" width="140" x="305.5" y="287.166"/><text fill="#000000" font-family="sans-serif" font-size="12" lengthAdjust="spacing" textLength="120" x="315.5" y="310.918">保存病例对象到数据库</text><polygon fill="#FEFECE" filter="url(#f1plk6boguj3f5)" points="334,343.5547,417,343.5547,429,355.5547,417,367.5547,334,367.5547,322,355.5547,334,343.5547" style="stroke:#A80036;stroke-width:1.5;"/><text fill="#000000" font-family="sans-serif" font-size="11" lengthAdjust="spacing" textLength="83" x="334" y="360.6492">插入数据库成功?</text><text fill="#000000" font-family="sans-serif" font-size="11" lengthAdjust="spacing" textLength="19" x="303" y="353.1377">true</text><text fill="#000000" font-family="sans-serif" font-size="11" lengthAdjust="spacing" textLength="24" x="429" y="353.1377">false</text><rect fill="#008000" filter="url(#f1plk6boguj3f5)" height="36.3887" rx="12.5" ry="12.5" style="stroke:#A80036;stroke-width:1.5;" width="154" x="221" y="377.5547"/><text fill="#000000" font-family="sans-serif" font-size="12" lengthAdjust="spacing" textLength="134" x="231" y="401.3066">返回生成病例文件对应url</text><ellipse cx="298" cy="443.9434" fill="#FFFFFF" filter="url(#f1plk6boguj3f5)" rx="10" ry="10" style="stroke:#000000;stroke-width:1.5;"/><line style="stroke:#000000;stroke-width:2.5;" x1="291.8128" x2="304.1872" y1="437.7562" y2="450.1305"/><line style="stroke:#000000;stroke-width:2.5;" x1="304.1872" x2="291.8128" y1="437.7562" y2="450.1305"/><rect fill="#FEFECE" filter="url(#f1plk6boguj3f5)" height="36.3887" rx="12.5" ry="12.5" style="stroke:#A80036;stroke-width:1.5;" width="104" x="401" y="377.5547"/><text fill="#000000" font-family="sans-serif" font-size="12" lengthAdjust="spacing" textLength="84" x="411" y="401.3066">清理生成的文件</text><rect fill="#FF0000" filter="url(#f1plk6boguj3f5)" height="36.3887" rx="12.5" ry="12.5" style="stroke:#A80036;stroke-width:1.5;" width="116" x="395" y="433.9434"/><text fill="#000000" font-family="sans-serif" font-size="12" lengthAdjust="spacing" textLength="96" x="405" y="457.6953">返回插入数据失败</text><ellipse cx="453" cy="500.332" fill="#FFFFFF" filter="url(#f1plk6boguj3f5)" rx="10" ry="10" style="stroke:#000000;stroke-width:1.5;"/><line style="stroke:#000000;stroke-width:2.5;" x1="446.8128" x2="459.1872" y1="494.1448" y2="506.5192"/><line style="stroke:#000000;stroke-width:2.5;" x1="459.1872" x2="446.8128" y1="494.1448" y2="506.5192"/><rect fill="#FF0000" filter="url(#f1plk6boguj3f5)" height="36.3887" rx="12.5" ry="12.5" style="stroke:#A80036;stroke-width:1.5;" width="152" x="541" y="287.166"/><text fill="#000000" font-family="sans-serif" font-size="12" lengthAdjust="spacing" textLength="132" x="551" y="310.918">返回生成病例失败的提示</text><ellipse cx="617" cy="353.5547" fill="#FFFFFF" filter="url(#f1plk6boguj3f5)" rx="10" ry="10" style="stroke:#000000;stroke-width:1.5;"/><line style="stroke:#000000;stroke-width:2.5;" x1="610.8128" x2="623.1872" y1="347.3675" y2="359.7419"/><line style="stroke:#000000;stroke-width:2.5;" x1="623.1872" x2="610.8128" y1="347.3675" y2="359.7419"/><line style="stroke:#A80036;stroke-width:1.5;" x1="288.625" x2="288.625" y1="30" y2="50"/><polygon fill="#A80036" points="284.625,40,288.625,50,292.625,40,288.625,44" style="stroke:#A80036;stroke-width:1.0;"/><line style="stroke:#A80036;stroke-width:1.5;" x1="111" x2="111" y1="176.7773" y2="196.7773"/><polygon fill="#A80036" points="107,186.7773,111,196.7773,115,186.7773,111,190.7773" style="stroke:#A80036;stroke-width:1.0;"/><line style="stroke:#A80036;stroke-width:1.5;" x1="496.25" x2="496.25" y1="176.7773" y2="196.7773"/><polygon fill="#A80036" points="492.25,186.7773,496.25,196.7773,500.25,186.7773,496.25,190.7773" style="stroke:#A80036;stroke-width:1.0;"/><line style="stroke:#A80036;stroke-width:1.5;" x1="298" x2="298" y1="413.9434" y2="433.9434"/><polygon fill="#A80036" points="294,423.9434,298,433.9434,302,423.9434,298,427.9434" style="stroke:#A80036;stroke-width:1.0;"/><line style="stroke:#A80036;stroke-width:1.5;" x1="453" x2="453" y1="413.9434" y2="433.9434"/><polygon fill="#A80036" points="449,423.9434,453,433.9434,457,423.9434,453,427.9434" style="stroke:#A80036;stroke-width:1.0;"/><line style="stroke:#A80036;stroke-width:1.5;" x1="453" x2="453" y1="470.332" y2="490.332"/><polygon fill="#A80036" points="449,480.332,453,490.332,457,480.332,453,484.332" style="stroke:#A80036;stroke-width:1.0;"/><line style="stroke:#A80036;stroke-width:1.5;" x1="322" x2="298" y1="355.5547" y2="355.5547"/><line style="stroke:#A80036;stroke-width:1.5;" x1="298" x2="298" y1="355.5547" y2="377.5547"/><polygon fill="#A80036" points="294,367.5547,298,377.5547,302,367.5547,298,371.5547" style="stroke:#A80036;stroke-width:1.0;"/><line style="stroke:#A80036;stroke-width:1.5;" x1="429" x2="453" y1="355.5547" y2="355.5547"/><line style="stroke:#A80036;stroke-width:1.5;" x1="453" x2="453" y1="355.5547" y2="377.5547"/><polygon fill="#A80036" points="449,367.5547,453,377.5547,457,367.5547,453,371.5547" style="stroke:#A80036;stroke-width:1.0;"/><line style="stroke:#A80036;stroke-width:1.5;" x1="375.5" x2="375.5" y1="323.5547" y2="343.5547"/><polygon fill="#A80036" points="371.5,333.5547,375.5,343.5547,379.5,333.5547,375.5,337.5547" style="stroke:#A80036;stroke-width:1.0;"/><line style="stroke:#A80036;stroke-width:1.5;" x1="617" x2="617" y1="323.5547" y2="343.5547"/><polygon fill="#A80036" points="613,333.5547,617,343.5547,621,333.5547,617,337.5547" style="stroke:#A80036;stroke-width:1.0;"/><line style="stroke:#A80036;stroke-width:1.5;" x1="448.25" x2="375.5" y1="265.166" y2="265.166"/><line style="stroke:#A80036;stroke-width:1.5;" x1="375.5" x2="375.5" y1="265.166" y2="287.166"/><polygon fill="#A80036" points="371.5,277.166,375.5,287.166,379.5,277.166,375.5,281.166" style="stroke:#A80036;stroke-width:1.0;"/><line style="stroke:#A80036;stroke-width:1.5;" x1="544.25" x2="617" y1="265.166" y2="265.166"/><line style="stroke:#A80036;stroke-width:1.5;" x1="617" x2="617" y1="265.166" y2="287.166"/><polygon fill="#A80036" points="613,277.166,617,287.166,621,277.166,617,281.166" style="stroke:#A80036;stroke-width:1.0;"/><line style="stroke:#A80036;stroke-width:1.5;" x1="496.25" x2="496.25" y1="233.166" y2="253.166"/><polygon fill="#A80036" points="492.25,243.166,496.25,253.166,500.25,243.166,496.25,247.166" style="stroke:#A80036;stroke-width:1.0;"/><line style="stroke:#A80036;stroke-width:1.5;" x1="240.625" x2="111" y1="118.3887" y2="118.3887"/><line style="stroke:#A80036;stroke-width:1.5;" x1="111" x2="111" y1="118.3887" y2="140.3887"/><polygon fill="#A80036" points="107,130.3887,111,140.3887,115,130.3887,111,134.3887" style="stroke:#A80036;stroke-width:1.0;"/><line style="stroke:#A80036;stroke-width:1.5;" x1="336.625" x2="496.25" y1="118.3887" y2="118.3887"/><line style="stroke:#A80036;stroke-width:1.5;" x1="496.25" x2="496.25" y1="118.3887" y2="140.3887"/><polygon fill="#A80036" points="492.25,130.3887,496.25,140.3887,500.25,130.3887,496.25,134.3887" style="stroke:#A80036;stroke-width:1.0;"/><line style="stroke:#A80036;stroke-width:1.5;" x1="288.625" x2="288.625" y1="86.3887" y2="106.3887"/><polygon fill="#A80036" points="284.625,96.3887,288.625,106.3887,292.625,96.3887,288.625,100.3887" style="stroke:#A80036;stroke-width:1.0;"/><!--MD5=[c3b72a988e8e4be1b4af1cdbba0ddacc]
@startuml generate-medical-activity
start
:传入填充的值;
if (传入的值为空?) then (true)
    #Red:返回生成病例缺少必要参数的提示;
    end
else (false)
    :调用方法直接生成html字符串;
    :输出字符串到htm文件;
    if (保存文件成功?) then (true)
        :保存病例对象到数据库;
        if (插入数据库成功?) then (true)
            #Green:返回生成病例文件对应url;
            end
        else (false)
            :清理生成的文件;
            #Red:返回插入数据失败;
            end
        endif
    else (false)
        #Red:返回生成病例失败的提示;
        end
    endif
endif
@enduml

PlantUML version 1.2021.00(Sun Jan 10 18:25:05 GMT+08:00 2021)
(GPL source distribution)
Java Runtime: Java(TM) SE Runtime Environment
JVM: Java HotSpot(TM) 64-Bit Server VM
Default Encoding: GBK
Language: zh
Country: CN
--></g></svg>