<?xml version="1.0" encoding="UTF-8" standalone="no"?><svg xmlns="http://www.w3.org/2000/svg" xmlns:xlink="http://www.w3.org/1999/xlink" contentScriptType="application/ecmascript" contentStyleType="text/css" height="649px" preserveAspectRatio="none" style="width:892px;height:649px;" version="1.1" viewBox="0 0 892 649" width="892px" zoomAndPan="magnify"><defs><filter height="300%" id="fk7ai7f62mwpp" width="300%" x="-1" y="-1"><feGaussianBlur result="blurOut" stdDeviation="2.0"/><feColorMatrix in="blurOut" result="blurOut2" type="matrix" values="0 0 0 0 0 0 0 0 0 0 0 0 0 0 0 0 0 0 .4 0"/><feOffset dx="4.0" dy="4.0" in="blurOut2" result="blurOut3"/><feBlend in="SourceGraphic" in2="blurOut3" mode="normal"/></filter></defs><g><ellipse cx="359.3125" cy="20" fill="#000000" filter="url(#fk7ai7f62mwpp)" rx="10" ry="10" style="stroke:none;stroke-width:1.0;"/><rect fill="#FEFECE" filter="url(#fk7ai7f62mwpp)" height="36.3887" rx="12.5" ry="12.5" style="stroke:#A80036;stroke-width:1.5;" width="92" x="313.3125" y="50"/><text fill="#000000" font-family="sans-serif" font-size="12" lengthAdjust="spacing" textLength="72" x="323.3125" y="73.752">传入填充的值</text><polygon fill="#FEFECE" filter="url(#fk7ai7f62mwpp)" points="323.3125,106.3887,395.3125,106.3887,407.3125,118.3887,395.3125,130.3887,323.3125,130.3887,311.3125,118.3887,323.3125,106.3887" style="stroke:#A80036;stroke-width:1.5;"/><text fill="#000000" font-family="sans-serif" font-size="11" lengthAdjust="spacing" textLength="72" x="323.3125" y="123.4832">传入的值为空?</text><text fill="#000000" font-family="sans-serif" font-size="11" lengthAdjust="spacing" textLength="19" x="292.3125" y="115.9717">true</text><text fill="#000000" font-family="sans-serif" font-size="11" lengthAdjust="spacing" textLength="24" x="407.3125" y="115.9717">false</text><rect fill="#FF0000" filter="url(#fk7ai7f62mwpp)" height="36.3887" rx="12.5" ry="12.5" style="stroke:#A80036;stroke-width:1.5;" width="200" x="11" y="140.3887"/><text fill="#000000" font-family="sans-serif" font-size="12" lengthAdjust="spacing" textLength="180" x="21" y="164.1406">返回生成病例缺少必要参数的提示</text><ellipse cx="111" cy="221.7773" fill="#FFFFFF" filter="url(#fk7ai7f62mwpp)" rx="10" ry="10" style="stroke:#000000;stroke-width:1.5;"/><line style="stroke:#000000;stroke-width:2.5;" x1="104.8128" x2="117.1872" y1="215.5902" y2="227.9645"/><line style="stroke:#000000;stroke-width:2.5;" x1="117.1872" x2="104.8128" y1="215.5902" y2="227.9645"/><rect fill="#FEFECE" filter="url(#fk7ai7f62mwpp)" height="52.7773" rx="12.5" ry="12.5" style="stroke:#A80036;stroke-width:1.5;" width="140" x="577.625" y="140.3887"/><text fill="#000000" font-family="sans-serif" font-size="12" lengthAdjust="spacing" textLength="72" x="587.625" y="164.1406">推进订单状态</text><text fill="#000000" font-family="sans-serif" font-size="12" lengthAdjust="spacing" textLength="120" x="587.625" y="180.5293">将已支付推进到已处理</text><polygon fill="#FEFECE" filter="url(#fk7ai7f62mwpp)" points="611.625,228.166,683.625,228.166,695.625,240.166,683.625,252.166,611.625,252.166,599.625,240.166,611.625,228.166" style="stroke:#A80036;stroke-width:1.5;"/><text fill="#000000" font-family="sans-serif" font-size="11" lengthAdjust="spacing" textLength="72" x="611.625" y="245.2605">更新数据失败?</text><text fill="#000000" font-family="sans-serif" font-size="11" lengthAdjust="spacing" textLength="19" x="580.625" y="237.749">true</text><text fill="#000000" font-family="sans-serif" font-size="11" lengthAdjust="spacing" textLength="24" x="695.625" y="237.749">false</text><rect fill="#FEFECE" filter="url(#fk7ai7f62mwpp)" height="36.3887" rx="12.5" ry="12.5" style="stroke:#A80036;stroke-width:1.5;" width="176" x="408.25" y="262.166"/><text fill="#000000" font-family="sans-serif" font-size="12" lengthAdjust="spacing" textLength="156" x="418.25" y="285.918">调用方法直接生成html字符串</text><rect fill="#FEFECE" filter="url(#fk7ai7f62mwpp)" height="36.3887" rx="12.5" ry="12.5" style="stroke:#A80036;stroke-width:1.5;" width="137" x="427.75" y="318.5547"/><text fill="#000000" font-family="sans-serif" font-size="12" lengthAdjust="spacing" textLength="117" x="437.75" y="342.3066">输出字符串到htm文件</text><polygon fill="#FEFECE" filter="url(#fk7ai7f62mwpp)" points="460.25,374.9434,532.25,374.9434,544.25,386.9434,532.25,398.9434,460.25,398.9434,448.25,386.9434,460.25,374.9434" style="stroke:#A80036;stroke-width:1.5;"/><text fill="#000000" font-family="sans-serif" font-size="11" lengthAdjust="spacing" textLength="72" x="460.25" y="392.0378">保存文件成功?</text><text fill="#000000" font-family="sans-serif" font-size="11" lengthAdjust="spacing" textLength="19" x="429.25" y="384.5264">true</text><text fill="#000000" font-family="sans-serif" font-size="11" lengthAdjust="spacing" textLength="24" x="544.25" y="384.5264">false</text><rect fill="#FEFECE" filter="url(#fk7ai7f62mwpp)" height="36.3887" rx="12.5" ry="12.5" style="stroke:#A80036;stroke-width:1.5;" width="140" x="305.5" y="408.9434"/><text fill="#000000" font-family="sans-serif" font-size="12" lengthAdjust="spacing" textLength="120" x="315.5" y="432.6953">保存病例对象到数据库</text><polygon fill="#FEFECE" filter="url(#fk7ai7f62mwpp)" points="334,465.332,417,465.332,429,477.332,417,489.332,334,489.332,322,477.332,334,465.332" style="stroke:#A80036;stroke-width:1.5;"/><text fill="#000000" font-family="sans-serif" font-size="11" lengthAdjust="spacing" textLength="83" x="334" y="482.4265">插入数据库成功?</text><text fill="#000000" font-family="sans-serif" font-size="11" lengthAdjust="spacing" textLength="19" x="303" y="474.915">true</text><text fill="#000000" font-family="sans-serif" font-size="11" lengthAdjust="spacing" textLength="24" x="429" y="474.915">false</text><rect fill="#008000" filter="url(#fk7ai7f62mwpp)" height="36.3887" rx="12.5" ry="12.5" style="stroke:#A80036;stroke-width:1.5;" width="154" x="221" y="499.332"/><text fill="#000000" font-family="sans-serif" font-size="12" lengthAdjust="spacing" textLength="134" x="231" y="523.084">返回生成病例文件对应url</text><ellipse cx="298" cy="565.7207" fill="#FFFFFF" filter="url(#fk7ai7f62mwpp)" rx="10" ry="10" style="stroke:#000000;stroke-width:1.5;"/><line style="stroke:#000000;stroke-width:2.5;" x1="291.8128" x2="304.1872" y1="559.5335" y2="571.9079"/><line style="stroke:#000000;stroke-width:2.5;" x1="304.1872" x2="291.8128" y1="559.5335" y2="571.9079"/><rect fill="#FEFECE" filter="url(#fk7ai7f62mwpp)" height="36.3887" rx="12.5" ry="12.5" style="stroke:#A80036;stroke-width:1.5;" width="104" x="401" y="499.332"/><text fill="#000000" font-family="sans-serif" font-size="12" lengthAdjust="spacing" textLength="84" x="411" y="523.084">清理生成的文件</text><rect fill="#FF0000" filter="url(#fk7ai7f62mwpp)" height="36.3887" rx="12.5" ry="12.5" style="stroke:#A80036;stroke-width:1.5;" width="116" x="395" y="555.7207"/><text fill="#000000" font-family="sans-serif" font-size="12" lengthAdjust="spacing" textLength="96" x="405" y="579.4727">返回插入数据失败</text><ellipse cx="453" cy="622.1094" fill="#FFFFFF" filter="url(#fk7ai7f62mwpp)" rx="10" ry="10" style="stroke:#000000;stroke-width:1.5;"/><line style="stroke:#000000;stroke-width:2.5;" x1="446.8128" x2="459.1872" y1="615.9222" y2="628.2966"/><line style="stroke:#000000;stroke-width:2.5;" x1="459.1872" x2="446.8128" y1="615.9222" y2="628.2966"/><rect fill="#FF0000" filter="url(#fk7ai7f62mwpp)" height="36.3887" rx="12.5" ry="12.5" style="stroke:#A80036;stroke-width:1.5;" width="152" x="541" y="408.9434"/><text fill="#000000" font-family="sans-serif" font-size="12" lengthAdjust="spacing" textLength="132" x="551" y="432.6953">返回生成病例失败的提示</text><ellipse cx="617" cy="475.332" fill="#FFFFFF" filter="url(#fk7ai7f62mwpp)" rx="10" ry="10" style="stroke:#000000;stroke-width:1.5;"/><line style="stroke:#000000;stroke-width:2.5;" x1="610.8128" x2="623.1872" y1="469.1448" y2="481.5192"/><line style="stroke:#000000;stroke-width:2.5;" x1="623.1872" x2="610.8128" y1="469.1448" y2="481.5192"/><rect fill="#FF0000" filter="url(#fk7ai7f62mwpp)" height="36.3887" rx="12.5" ry="12.5" style="stroke:#A80036;stroke-width:1.5;" width="152" x="723" y="262.166"/><text fill="#000000" font-family="sans-serif" font-size="12" lengthAdjust="spacing" textLength="132" x="733" y="285.918">返回订单状态错误的提示</text><ellipse cx="799" cy="328.5547" fill="#FFFFFF" filter="url(#fk7ai7f62mwpp)" rx="10" ry="10" style="stroke:#000000;stroke-width:1.5;"/><line style="stroke:#000000;stroke-width:2.5;" x1="792.8128" x2="805.1872" y1="322.3675" y2="334.7419"/><line style="stroke:#000000;stroke-width:2.5;" x1="805.1872" x2="792.8128" y1="322.3675" y2="334.7419"/><line style="stroke:#A80036;stroke-width:1.5;" x1="359.3125" x2="359.3125" y1="30" y2="50"/><polygon fill="#A80036" points="355.3125,40,359.3125,50,363.3125,40,359.3125,44" style="stroke:#A80036;stroke-width:1.0;"/><line style="stroke:#A80036;stroke-width:1.5;" x1="111" x2="111" y1="176.7773" y2="211.7773"/><polygon fill="#A80036" points="107,201.7773,111,211.7773,115,201.7773,111,205.7773" style="stroke:#A80036;stroke-width:1.0;"/><line style="stroke:#A80036;stroke-width:1.5;" x1="496.25" x2="496.25" y1="298.5547" y2="318.5547"/><polygon fill="#A80036" points="492.25,308.5547,496.25,318.5547,500.25,308.5547,496.25,312.5547" style="stroke:#A80036;stroke-width:1.0;"/><line style="stroke:#A80036;stroke-width:1.5;" x1="298" x2="298" y1="535.7207" y2="555.7207"/><polygon fill="#A80036" points="294,545.7207,298,555.7207,302,545.7207,298,549.7207" style="stroke:#A80036;stroke-width:1.0;"/><line style="stroke:#A80036;stroke-width:1.5;" x1="453" x2="453" y1="535.7207" y2="555.7207"/><polygon fill="#A80036" points="449,545.7207,453,555.7207,457,545.7207,453,549.7207" style="stroke:#A80036;stroke-width:1.0;"/><line style="stroke:#A80036;stroke-width:1.5;" x1="453" x2="453" y1="592.1094" y2="612.1094"/><polygon fill="#A80036" points="449,602.1094,453,612.1094,457,602.1094,453,606.1094" style="stroke:#A80036;stroke-width:1.0;"/><line style="stroke:#A80036;stroke-width:1.5;" x1="322" x2="298" y1="477.332" y2="477.332"/><line style="stroke:#A80036;stroke-width:1.5;" x1="298" x2="298" y1="477.332" y2="499.332"/><polygon fill="#A80036" points="294,489.332,298,499.332,302,489.332,298,493.332" style="stroke:#A80036;stroke-width:1.0;"/><line style="stroke:#A80036;stroke-width:1.5;" x1="429" x2="453" y1="477.332" y2="477.332"/><line style="stroke:#A80036;stroke-width:1.5;" x1="453" x2="453" y1="477.332" y2="499.332"/><polygon fill="#A80036" points="449,489.332,453,499.332,457,489.332,453,493.332" style="stroke:#A80036;stroke-width:1.0;"/><line style="stroke:#A80036;stroke-width:1.5;" x1="375.5" x2="375.5" y1="445.332" y2="465.332"/><polygon fill="#A80036" points="371.5,455.332,375.5,465.332,379.5,455.332,375.5,459.332" style="stroke:#A80036;stroke-width:1.0;"/><line style="stroke:#A80036;stroke-width:1.5;" x1="617" x2="617" y1="445.332" y2="465.332"/><polygon fill="#A80036" points="613,455.332,617,465.332,621,455.332,617,459.332" style="stroke:#A80036;stroke-width:1.0;"/><line style="stroke:#A80036;stroke-width:1.5;" x1="448.25" x2="375.5" y1="386.9434" y2="386.9434"/><line style="stroke:#A80036;stroke-width:1.5;" x1="375.5" x2="375.5" y1="386.9434" y2="408.9434"/><polygon fill="#A80036" points="371.5,398.9434,375.5,408.9434,379.5,398.9434,375.5,402.9434" style="stroke:#A80036;stroke-width:1.0;"/><line style="stroke:#A80036;stroke-width:1.5;" x1="544.25" x2="617" y1="386.9434" y2="386.9434"/><line style="stroke:#A80036;stroke-width:1.5;" x1="617" x2="617" y1="386.9434" y2="408.9434"/><polygon fill="#A80036" points="613,398.9434,617,408.9434,621,398.9434,617,402.9434" style="stroke:#A80036;stroke-width:1.0;"/><line style="stroke:#A80036;stroke-width:1.5;" x1="496.25" x2="496.25" y1="354.9434" y2="374.9434"/><polygon fill="#A80036" points="492.25,364.9434,496.25,374.9434,500.25,364.9434,496.25,368.9434" style="stroke:#A80036;stroke-width:1.0;"/><line style="stroke:#A80036;stroke-width:1.5;" x1="799" x2="799" y1="298.5547" y2="318.5547"/><polygon fill="#A80036" points="795,308.5547,799,318.5547,803,308.5547,799,312.5547" style="stroke:#A80036;stroke-width:1.0;"/><line style="stroke:#A80036;stroke-width:1.5;" x1="599.625" x2="496.25" y1="240.166" y2="240.166"/><line style="stroke:#A80036;stroke-width:1.5;" x1="496.25" x2="496.25" y1="240.166" y2="262.166"/><polygon fill="#A80036" points="492.25,252.166,496.25,262.166,500.25,252.166,496.25,256.166" style="stroke:#A80036;stroke-width:1.0;"/><line style="stroke:#A80036;stroke-width:1.5;" x1="695.625" x2="799" y1="240.166" y2="240.166"/><line style="stroke:#A80036;stroke-width:1.5;" x1="799" x2="799" y1="240.166" y2="262.166"/><polygon fill="#A80036" points="795,252.166,799,262.166,803,252.166,799,256.166" style="stroke:#A80036;stroke-width:1.0;"/><line style="stroke:#A80036;stroke-width:1.5;" x1="647.625" x2="647.625" y1="193.166" y2="228.166"/><polygon fill="#A80036" points="643.625,218.166,647.625,228.166,651.625,218.166,647.625,222.166" style="stroke:#A80036;stroke-width:1.0;"/><line style="stroke:#A80036;stroke-width:1.5;" x1="311.3125" x2="111" y1="118.3887" y2="118.3887"/><line style="stroke:#A80036;stroke-width:1.5;" x1="111" x2="111" y1="118.3887" y2="140.3887"/><polygon fill="#A80036" points="107,130.3887,111,140.3887,115,130.3887,111,134.3887" style="stroke:#A80036;stroke-width:1.0;"/><line style="stroke:#A80036;stroke-width:1.5;" x1="407.3125" x2="647.625" y1="118.3887" y2="118.3887"/><line style="stroke:#A80036;stroke-width:1.5;" x1="647.625" x2="647.625" y1="118.3887" y2="140.3887"/><polygon fill="#A80036" points="643.625,130.3887,647.625,140.3887,651.625,130.3887,647.625,134.3887" style="stroke:#A80036;stroke-width:1.0;"/><line style="stroke:#A80036;stroke-width:1.5;" x1="359.3125" x2="359.3125" y1="86.3887" y2="106.3887"/><polygon fill="#A80036" points="355.3125,96.3887,359.3125,106.3887,363.3125,96.3887,359.3125,100.3887" style="stroke:#A80036;stroke-width:1.0;"/><!--MD5=[c9eee1a58899e8e0c404a8f7a8e4fbd2]
@startuml generate-medical-activity
start
:传入填充的值;
if (传入的值为空?) then (true)
    #Red:返回生成病例缺少必要参数的提示;
    end
else (false)
    :推进订单状态\n将已支付推进到已处理;
    if (更新数据失败?) then (true)
        :调用方法直接生成html字符串;
        :输出字符串到htm文件;
        if (保存文件成功?) then (true)
            :保存病例对象到数据库;
            if (插入数据库成功?) then (true)
                #Green:返回生成病例文件对应url;
                end
            else (false)
                :清理生成的文件;
                #Red:返回插入数据失败;
                end
            endif
        else (false)
            #Red:返回生成病例失败的提示;
            end
        endif
    else (false)
        #Red:返回订单状态错误的提示;
        end
    endif
endif
@enduml

PlantUML version 1.2021.00(Sun Jan 10 18:25:05 GMT+08:00 2021)
(GPL source distribution)
Java Runtime: Java(TM) SE Runtime Environment
JVM: Java HotSpot(TM) 64-Bit Server VM
Default Encoding: GBK
Language: zh
Country: CN
--></g></svg>