<?xml version="1.0" encoding="UTF-8" standalone="no"?><svg xmlns="http://www.w3.org/2000/svg" xmlns:xlink="http://www.w3.org/1999/xlink" contentScriptType="application/ecmascript" contentStyleType="text/css" height="620px" preserveAspectRatio="none" style="width:1071px;height:620px;" version="1.1" viewBox="0 0 1071 620" width="1071px" zoomAndPan="magnify"><defs><filter height="300%" id="f19c31betod0l0" width="300%" x="-1" y="-1"><feGaussianBlur result="blurOut" stdDeviation="2.0"/><feColorMatrix in="blurOut" result="blurOut2" type="matrix" values="0 0 0 0 0 0 0 0 0 0 0 0 0 0 0 0 0 0 .4 0"/><feOffset dx="4.0" dy="4.0" in="blurOut2" result="blurOut3"/><feBlend in="SourceGraphic" in2="blurOut3" mode="normal"/></filter></defs><g><!--MD5=[f858e21b256418c46e6d54f511e89215]
class IGeneralMapper--><rect codeLine="1" fill="#FEFECE" filter="url(#f19c31betod0l0)" height="48" id="IGeneralMapper" style="stroke:#A80036;stroke-width:1.5;" width="210" x="144.5" y="47.5"/><ellipse cx="159.5" cy="63.5" fill="#ADD1B2" rx="11" ry="11" style="stroke:#A80036;stroke-width:1.0;"/><path d="M158.0781,68.8594 Q156.2188,68.8594 155.125,67.4688 Q154.0313,66.0781 154.0313,63.0938 Q154.0313,60.5625 155.1953,58.9063 Q156.3594,57.25 158.3438,57.25 Q159.8125,57.25 160.2813,57.375 Q160.75,57.5781 160.75,57.5781 Q160.75,57.5781 160.75,57.5078 Q160.75,57.4375 161.3594,56.5156 L162.4063,60.1719 L161.0781,60.5781 Q160.6094,59.0313 159.9453,58.3672 Q159.2813,57.7031 158.2188,57.7031 Q157.8281,57.7031 157.0625,59.2344 Q156.2969,60.7656 156.2969,63.0156 Q156.2969,65.4844 156.9609,66.875 Q157.625,68.2656 158.1563,68.2656 Q159.2188,68.2656 159.9766,67.5 Q160.7344,66.7344 161.0781,65.0781 L162.4063,65.6719 Q162.0781,67.0781 161.1797,67.9688 Q160.2813,68.8594 158.0781,68.8594 Z " fill="#000000"/><text fill="#000000" font-family="sans-serif" font-size="12" lengthAdjust="spacing" textLength="88" x="173.5" y="69.0576">IGeneralMapper</text><rect fill="#FFFFFF" height="18.3887" style="stroke:#000000;stroke-width:1.0;stroke-dasharray:2.0,2.0;" width="88" x="269.5" y="44.5"/><text fill="#000000" font-family="sans-serif" font-size="12" font-style="italic" lengthAdjust="spacing" textLength="86" x="270.5" y="59.252">T extends Entity</text><line style="stroke:#A80036;stroke-width:1.5;" x1="145.5" x2="353.5" y1="79.5" y2="79.5"/><line style="stroke:#A80036;stroke-width:1.5;" x1="145.5" x2="353.5" y1="87.5" y2="87.5"/><!--MD5=[42ed55481b26609116a91810fd7fb693]
class GeneralMapperImpl--><rect codeLine="2" fill="#FEFECE" filter="url(#f19c31betod0l0)" height="123.1147" id="GeneralMapperImpl" style="stroke:#A80036;stroke-width:1.5;" width="307" x="474" y="10"/><ellipse cx="496.2" cy="26" fill="#A9DCDF" rx="11" ry="11" style="stroke:#A80036;stroke-width:1.0;"/><path d="M496.575,25.9844 L494.5906,25.9844 L493.9969,28.5 Q493.9344,28.8438 493.9344,29.0313 Q493.9344,29.2969 494.0281,29.5625 Q494.1219,29.8281 494.1219,29.8281 L494.7938,29.8281 L494.7938,30.2344 L491.3406,30.2344 L491.3406,29.8281 L491.5281,29.8281 Q491.7938,29.8281 491.9969,29.6641 Q492.2,29.5 492.2625,29.1094 L494.8563,18.9375 L496.7313,18.3281 L499.3719,29.1094 Q499.5125,29.5 499.7078,29.6641 Q499.9031,29.8281 499.9031,29.8281 L500.3719,29.8281 L500.3719,30.2344 L496.5125,30.2344 L496.5125,29.8281 L496.7781,29.8281 Q497.1844,29.8281 497.2469,29.6641 Q497.3094,29.5 497.3094,29.375 Q497.3094,29.1094 497.2469,28.9063 L496.575,25.9844 Z M495.1844,20.0781 L495.1844,20.0781 L494.7313,25.5781 L496.5125,25.5781 L495.1844,20.0781 Z " fill="#000000"/><text fill="#000000" font-family="sans-serif" font-size="12" font-style="italic" lengthAdjust="spacing" textLength="110" x="511.8" y="31.5576">GeneralMapperImpl</text><rect fill="#FFFFFF" height="18.3887" style="stroke:#000000;stroke-width:1.0;stroke-dasharray:2.0,2.0;" width="147" x="637" y="7"/><text fill="#000000" font-family="sans-serif" font-size="12" font-style="italic" lengthAdjust="spacing" textLength="145" x="638" y="21.752">T extends IGeneralMapper</text><line style="stroke:#A80036;stroke-width:1.5;" x1="475" x2="780" y1="42" y2="42"/><line style="stroke:#A80036;stroke-width:1.5;" x1="475" x2="780" y1="50" y2="50"/><ellipse cx="485" cy="61" fill="#84BE84" rx="3" ry="3" style="stroke:#038048;stroke-width:1.0;"/><text fill="#000000" font-family="sans-serif" font-size="11" lengthAdjust="spacing" textLength="281" x="494" y="66.606">List select(map, orderedKey, isDesc, pageNum, pageSize)</text><ellipse cx="485" cy="76.0229" fill="#84BE84" rx="3" ry="3" style="stroke:#038048;stroke-width:1.0;"/><text fill="#000000" font-family="sans-serif" font-size="11" lengthAdjust="spacing" textLength="127" x="494" y="81.6289">Object selectPrimary(map)</text><ellipse cx="485" cy="91.0459" fill="#84BE84" rx="3" ry="3" style="stroke:#038048;stroke-width:1.0;"/><text fill="#000000" font-family="sans-serif" font-size="11" lengthAdjust="spacing" textLength="62" x="494" y="96.6519">int insert(list)</text><ellipse cx="485" cy="106.0688" fill="#84BE84" rx="3" ry="3" style="stroke:#038048;stroke-width:1.0;"/><text fill="#000000" font-family="sans-serif" font-size="11" lengthAdjust="spacing" textLength="116" x="494" y="111.6748">int update(before, after)</text><ellipse cx="485" cy="121.0918" fill="#84BE84" rx="3" ry="3" style="stroke:#038048;stroke-width:1.0;"/><text fill="#000000" font-family="sans-serif" font-size="11" lengthAdjust="spacing" textLength="71" x="494" y="126.6978">int delete(map)</text><!--MD5=[a34cc6e4f1b6f4cdae16620787192074]
class IUserInfoMapper--><rect codeLine="10" fill="#FEFECE" filter="url(#f19c31betod0l0)" height="48" id="IUserInfoMapper" style="stroke:#A80036;stroke-width:1.5;" width="124" x="396.5" y="193"/><ellipse cx="411.5" cy="209" fill="#B4A7E5" rx="11" ry="11" style="stroke:#A80036;stroke-width:1.0;"/><path d="M408.0938,203.2813 L408.0938,202.875 L414.4063,202.875 L414.4063,203.2813 L411.875,203.2813 Q411.875,203.2813 412.0234,203.4141 Q412.1719,203.5469 412.1719,203.8125 L412.1719,213.2969 Q412.1719,213.5625 412.3906,213.6953 Q412.6094,213.8281 412.6094,213.8281 L414.4063,213.8281 L414.4063,214.2344 L408.0938,214.2344 L408.0938,213.8281 L409.625,213.8281 Q409.9531,213.8281 410.0859,213.6953 Q410.2188,213.5625 410.2188,213.2969 L410.2188,203.8125 Q410.2188,203.5469 410.0859,203.4141 Q409.9531,203.2813 409.625,203.2813 L408.0938,203.2813 Z " fill="#000000"/><text fill="#000000" font-family="sans-serif" font-size="12" font-style="italic" lengthAdjust="spacing" textLength="92" x="425.5" y="214.5576">IUserInfoMapper</text><line style="stroke:#A80036;stroke-width:1.5;" x1="397.5" x2="519.5" y1="225" y2="225"/><line style="stroke:#A80036;stroke-width:1.5;" x1="397.5" x2="519.5" y1="233" y2="233"/><!--MD5=[a5b3c27f6b18cdb22a18a54ac4b3f2fe]
class UserInfoMapperImpl--><rect codeLine="11" fill="#FEFECE" filter="url(#f19c31betod0l0)" height="48" id="UserInfoMapperImpl" style="stroke:#A80036;stroke-width:1.5;" width="144" x="555.5" y="193"/><ellipse cx="570.5" cy="209" fill="#ADD1B2" rx="11" ry="11" style="stroke:#A80036;stroke-width:1.0;"/><path d="M569.0781,214.3594 Q567.2188,214.3594 566.125,212.9688 Q565.0313,211.5781 565.0313,208.5938 Q565.0313,206.0625 566.1953,204.4063 Q567.3594,202.75 569.3438,202.75 Q570.8125,202.75 571.2813,202.875 Q571.75,203.0781 571.75,203.0781 Q571.75,203.0781 571.75,203.0078 Q571.75,202.9375 572.3594,202.0156 L573.4063,205.6719 L572.0781,206.0781 Q571.6094,204.5313 570.9453,203.8672 Q570.2813,203.2031 569.2188,203.2031 Q568.8281,203.2031 568.0625,204.7344 Q567.2969,206.2656 567.2969,208.5156 Q567.2969,210.9844 567.9609,212.375 Q568.625,213.7656 569.1563,213.7656 Q570.2188,213.7656 570.9766,213 Q571.7344,212.2344 572.0781,210.5781 L573.4063,211.1719 Q573.0781,212.5781 572.1797,213.4688 Q571.2813,214.3594 569.0781,214.3594 Z " fill="#000000"/><text fill="#000000" font-family="sans-serif" font-size="12" lengthAdjust="spacing" textLength="112" x="584.5" y="214.5576">UserInfoMapperImpl</text><line style="stroke:#A80036;stroke-width:1.5;" x1="556.5" x2="698.5" y1="225" y2="225"/><line style="stroke:#A80036;stroke-width:1.5;" x1="556.5" x2="698.5" y1="233" y2="233"/><!--MD5=[c8d8191309d6a0ac3535a6a9e4ec56e1]
class IDoctorInfoMapper--><rect codeLine="12" fill="#FEFECE" filter="url(#f19c31betod0l0)" height="48" id="IDoctorInfoMapper" style="stroke:#A80036;stroke-width:1.5;" width="134" x="923.5" y="193"/><ellipse cx="938.5" cy="209" fill="#B4A7E5" rx="11" ry="11" style="stroke:#A80036;stroke-width:1.0;"/><path d="M935.0938,203.2813 L935.0938,202.875 L941.4063,202.875 L941.4063,203.2813 L938.875,203.2813 Q938.875,203.2813 939.0234,203.4141 Q939.1719,203.5469 939.1719,203.8125 L939.1719,213.2969 Q939.1719,213.5625 939.3906,213.6953 Q939.6094,213.8281 939.6094,213.8281 L941.4063,213.8281 L941.4063,214.2344 L935.0938,214.2344 L935.0938,213.8281 L936.625,213.8281 Q936.9531,213.8281 937.0859,213.6953 Q937.2188,213.5625 937.2188,213.2969 L937.2188,203.8125 Q937.2188,203.5469 937.0859,203.4141 Q936.9531,203.2813 936.625,203.2813 L935.0938,203.2813 Z " fill="#000000"/><text fill="#000000" font-family="sans-serif" font-size="12" font-style="italic" lengthAdjust="spacing" textLength="102" x="952.5" y="214.5576">IDoctorInfoMapper</text><line style="stroke:#A80036;stroke-width:1.5;" x1="924.5" x2="1056.5" y1="225" y2="225"/><line style="stroke:#A80036;stroke-width:1.5;" x1="924.5" x2="1056.5" y1="233" y2="233"/><!--MD5=[f493b965ae83173691869a549bab91db]
class DoctorInfoMapperImpl--><rect codeLine="13" fill="#FEFECE" filter="url(#f19c31betod0l0)" height="48" id="DoctorInfoMapperImpl" style="stroke:#A80036;stroke-width:1.5;" width="153" x="735" y="193"/><ellipse cx="750" cy="209" fill="#ADD1B2" rx="11" ry="11" style="stroke:#A80036;stroke-width:1.0;"/><path d="M748.5781,214.3594 Q746.7188,214.3594 745.625,212.9688 Q744.5313,211.5781 744.5313,208.5938 Q744.5313,206.0625 745.6953,204.4063 Q746.8594,202.75 748.8438,202.75 Q750.3125,202.75 750.7813,202.875 Q751.25,203.0781 751.25,203.0781 Q751.25,203.0781 751.25,203.0078 Q751.25,202.9375 751.8594,202.0156 L752.9063,205.6719 L751.5781,206.0781 Q751.1094,204.5313 750.4453,203.8672 Q749.7813,203.2031 748.7188,203.2031 Q748.3281,203.2031 747.5625,204.7344 Q746.7969,206.2656 746.7969,208.5156 Q746.7969,210.9844 747.4609,212.375 Q748.125,213.7656 748.6563,213.7656 Q749.7188,213.7656 750.4766,213 Q751.2344,212.2344 751.5781,210.5781 L752.9063,211.1719 Q752.5781,212.5781 751.6797,213.4688 Q750.7813,214.3594 748.5781,214.3594 Z " fill="#000000"/><text fill="#000000" font-family="sans-serif" font-size="12" lengthAdjust="spacing" textLength="121" x="764" y="214.5576">DoctorInfoMapperImpl</text><line style="stroke:#A80036;stroke-width:1.5;" x1="736" x2="887" y1="225" y2="225"/><line style="stroke:#A80036;stroke-width:1.5;" x1="736" x2="887" y1="233" y2="233"/><!--MD5=[be996cdb8e6bf2fc7cb89c555f2cd144]
class Entity--><rect codeLine="15" fill="#FEFECE" filter="url(#f19c31betod0l0)" height="48" id="Entity" style="stroke:#A80036;stroke-width:1.5;" width="62" x="134.5" y="193"/><ellipse cx="149.5" cy="209" fill="#B4A7E5" rx="11" ry="11" style="stroke:#A80036;stroke-width:1.0;"/><path d="M146.0938,203.2813 L146.0938,202.875 L152.4063,202.875 L152.4063,203.2813 L149.875,203.2813 Q149.875,203.2813 150.0234,203.4141 Q150.1719,203.5469 150.1719,203.8125 L150.1719,213.2969 Q150.1719,213.5625 150.3906,213.6953 Q150.6094,213.8281 150.6094,213.8281 L152.4063,213.8281 L152.4063,214.2344 L146.0938,214.2344 L146.0938,213.8281 L147.625,213.8281 Q147.9531,213.8281 148.0859,213.6953 Q148.2188,213.5625 148.2188,213.2969 L148.2188,203.8125 Q148.2188,203.5469 148.0859,203.4141 Q147.9531,203.2813 147.625,203.2813 L146.0938,203.2813 Z " fill="#000000"/><text fill="#000000" font-family="sans-serif" font-size="12" font-style="italic" lengthAdjust="spacing" textLength="30" x="163.5" y="214.5576">Entity</text><line style="stroke:#A80036;stroke-width:1.5;" x1="135.5" x2="195.5" y1="225" y2="225"/><line style="stroke:#A80036;stroke-width:1.5;" x1="135.5" x2="195.5" y1="233" y2="233"/><!--MD5=[9e94af7e26ddd61f16675ec5a7d7b75f]
class UserInfo--><rect codeLine="16" fill="#FEFECE" filter="url(#f19c31betod0l0)" height="48" id="UserInfo" style="stroke:#A80036;stroke-width:1.5;" width="79" x="7" y="316"/><ellipse cx="22" cy="332" fill="#ADD1B2" rx="11" ry="11" style="stroke:#A80036;stroke-width:1.0;"/><path d="M20.5781,337.3594 Q18.7188,337.3594 17.625,335.9688 Q16.5313,334.5781 16.5313,331.5938 Q16.5313,329.0625 17.6953,327.4063 Q18.8594,325.75 20.8438,325.75 Q22.3125,325.75 22.7813,325.875 Q23.25,326.0781 23.25,326.0781 Q23.25,326.0781 23.25,326.0078 Q23.25,325.9375 23.8594,325.0156 L24.9063,328.6719 L23.5781,329.0781 Q23.1094,327.5313 22.4453,326.8672 Q21.7813,326.2031 20.7188,326.2031 Q20.3281,326.2031 19.5625,327.7344 Q18.7969,329.2656 18.7969,331.5156 Q18.7969,333.9844 19.4609,335.375 Q20.125,336.7656 20.6563,336.7656 Q21.7188,336.7656 22.4766,336 Q23.2344,335.2344 23.5781,333.5781 L24.9063,334.1719 Q24.5781,335.5781 23.6797,336.4688 Q22.7813,337.3594 20.5781,337.3594 Z " fill="#000000"/><text fill="#000000" font-family="sans-serif" font-size="12" lengthAdjust="spacing" textLength="47" x="36" y="337.5576">UserInfo</text><line style="stroke:#A80036;stroke-width:1.5;" x1="8" x2="85" y1="348" y2="348"/><line style="stroke:#A80036;stroke-width:1.5;" x1="8" x2="85" y1="356" y2="356"/><!--MD5=[dd17be4242c4297e60376a0e5f00cd61]
class DoctorInfo--><rect codeLine="17" fill="#FEFECE" filter="url(#f19c31betod0l0)" height="48" id="DoctorInfo" style="stroke:#A80036;stroke-width:1.5;" width="88" x="121.5" y="316"/><ellipse cx="136.5" cy="332" fill="#ADD1B2" rx="11" ry="11" style="stroke:#A80036;stroke-width:1.0;"/><path d="M135.0781,337.3594 Q133.2188,337.3594 132.125,335.9688 Q131.0313,334.5781 131.0313,331.5938 Q131.0313,329.0625 132.1953,327.4063 Q133.3594,325.75 135.3438,325.75 Q136.8125,325.75 137.2813,325.875 Q137.75,326.0781 137.75,326.0781 Q137.75,326.0781 137.75,326.0078 Q137.75,325.9375 138.3594,325.0156 L139.4063,328.6719 L138.0781,329.0781 Q137.6094,327.5313 136.9453,326.8672 Q136.2813,326.2031 135.2188,326.2031 Q134.8281,326.2031 134.0625,327.7344 Q133.2969,329.2656 133.2969,331.5156 Q133.2969,333.9844 133.9609,335.375 Q134.625,336.7656 135.1563,336.7656 Q136.2188,336.7656 136.9766,336 Q137.7344,335.2344 138.0781,333.5781 L139.4063,334.1719 Q139.0781,335.5781 138.1797,336.4688 Q137.2813,337.3594 135.0781,337.3594 Z " fill="#000000"/><text fill="#000000" font-family="sans-serif" font-size="12" lengthAdjust="spacing" textLength="56" x="150.5" y="337.5576">DoctorInfo</text><line style="stroke:#A80036;stroke-width:1.5;" x1="122.5" x2="208.5" y1="348" y2="348"/><line style="stroke:#A80036;stroke-width:1.5;" x1="122.5" x2="208.5" y1="356" y2="356"/><!--MD5=[6915b5f7d8849969893059ddc0031db6]
class IUserInfoService--><rect codeLine="19" fill="#FEFECE" filter="url(#f19c31betod0l0)" height="78.0459" id="IUserInfoService" style="stroke:#A80036;stroke-width:1.5;" width="277" x="245" y="301"/><ellipse cx="333.25" cy="317" fill="#B4A7E5" rx="11" ry="11" style="stroke:#A80036;stroke-width:1.0;"/><path d="M329.8438,311.2813 L329.8438,310.875 L336.1563,310.875 L336.1563,311.2813 L333.625,311.2813 Q333.625,311.2813 333.7734,311.4141 Q333.9219,311.5469 333.9219,311.8125 L333.9219,321.2969 Q333.9219,321.5625 334.1406,321.6953 Q334.3594,321.8281 334.3594,321.8281 L336.1563,321.8281 L336.1563,322.2344 L329.8438,322.2344 L329.8438,321.8281 L331.375,321.8281 Q331.7031,321.8281 331.8359,321.6953 Q331.9688,321.5625 331.9688,321.2969 L331.9688,311.8125 Q331.9688,311.5469 331.8359,311.4141 Q331.7031,311.2813 331.375,311.2813 L329.8438,311.2813 Z " fill="#000000"/><text fill="#000000" font-family="sans-serif" font-size="12" font-style="italic" lengthAdjust="spacing" textLength="92" x="353.75" y="322.5576">IUserInfoService</text><line style="stroke:#A80036;stroke-width:1.5;" x1="246" x2="521" y1="333" y2="333"/><line style="stroke:#A80036;stroke-width:1.5;" x1="246" x2="521" y1="341" y2="341"/><ellipse cx="256" cy="352" fill="#84BE84" rx="3" ry="3" style="stroke:#038048;stroke-width:1.0;"/><text fill="#000000" font-family="sans-serif" font-size="11" lengthAdjust="spacing" textLength="251" x="265" y="357.606">CommonResult&lt;Object&gt; login(username, password)</text><ellipse cx="256" cy="367.0229" fill="#84BE84" rx="3" ry="3" style="stroke:#038048;stroke-width:1.0;"/><text fill="#000000" font-family="sans-serif" font-size="11" lengthAdjust="spacing" textLength="202" x="265" y="372.6289">CommonResult&lt;Object&gt; logout(username)</text><!--MD5=[4c7a865ad0868f62bad889efaec67f03]
class UserInfoServiceImpl--><rect codeLine="23" fill="#FEFECE" filter="url(#f19c31betod0l0)" height="48" id="UserInfoServiceImpl" style="stroke:#A80036;stroke-width:1.5;" width="143" x="557" y="316"/><ellipse cx="572" cy="332" fill="#ADD1B2" rx="11" ry="11" style="stroke:#A80036;stroke-width:1.0;"/><path d="M570.5781,337.3594 Q568.7188,337.3594 567.625,335.9688 Q566.5313,334.5781 566.5313,331.5938 Q566.5313,329.0625 567.6953,327.4063 Q568.8594,325.75 570.8438,325.75 Q572.3125,325.75 572.7813,325.875 Q573.25,326.0781 573.25,326.0781 Q573.25,326.0781 573.25,326.0078 Q573.25,325.9375 573.8594,325.0156 L574.9063,328.6719 L573.5781,329.0781 Q573.1094,327.5313 572.4453,326.8672 Q571.7813,326.2031 570.7188,326.2031 Q570.3281,326.2031 569.5625,327.7344 Q568.7969,329.2656 568.7969,331.5156 Q568.7969,333.9844 569.4609,335.375 Q570.125,336.7656 570.6563,336.7656 Q571.7188,336.7656 572.4766,336 Q573.2344,335.2344 573.5781,333.5781 L574.9063,334.1719 Q574.5781,335.5781 573.6797,336.4688 Q572.7813,337.3594 570.5781,337.3594 Z " fill="#000000"/><text fill="#000000" font-family="sans-serif" font-size="12" lengthAdjust="spacing" textLength="111" x="586" y="337.5576">UserInfoServiceImpl</text><line style="stroke:#A80036;stroke-width:1.5;" x1="558" x2="699" y1="348" y2="348"/><line style="stroke:#A80036;stroke-width:1.5;" x1="558" x2="699" y1="356" y2="356"/><!--MD5=[113183186277e192e83d21cb350a0fb6]
class IDoctorInfoService--><rect codeLine="24" fill="#FEFECE" filter="url(#f19c31betod0l0)" height="48" id="IDoctorInfoService" style="stroke:#A80036;stroke-width:1.5;" width="134" x="922.5" y="316"/><ellipse cx="937.5" cy="332" fill="#B4A7E5" rx="11" ry="11" style="stroke:#A80036;stroke-width:1.0;"/><path d="M934.0938,326.2813 L934.0938,325.875 L940.4063,325.875 L940.4063,326.2813 L937.875,326.2813 Q937.875,326.2813 938.0234,326.4141 Q938.1719,326.5469 938.1719,326.8125 L938.1719,336.2969 Q938.1719,336.5625 938.3906,336.6953 Q938.6094,336.8281 938.6094,336.8281 L940.4063,336.8281 L940.4063,337.2344 L934.0938,337.2344 L934.0938,336.8281 L935.625,336.8281 Q935.9531,336.8281 936.0859,336.6953 Q936.2188,336.5625 936.2188,336.2969 L936.2188,326.8125 Q936.2188,326.5469 936.0859,326.4141 Q935.9531,326.2813 935.625,326.2813 L934.0938,326.2813 Z " fill="#000000"/><text fill="#000000" font-family="sans-serif" font-size="12" font-style="italic" lengthAdjust="spacing" textLength="102" x="951.5" y="337.5576">IDoctorInfoService</text><line style="stroke:#A80036;stroke-width:1.5;" x1="923.5" x2="1055.5" y1="348" y2="348"/><line style="stroke:#A80036;stroke-width:1.5;" x1="923.5" x2="1055.5" y1="356" y2="356"/><!--MD5=[8dff63a224e8b178e8cee71ae94e685c]
class DoctorInfoServiceImpl--><rect codeLine="25" fill="#FEFECE" filter="url(#f19c31betod0l0)" height="48" id="DoctorInfoServiceImpl" style="stroke:#A80036;stroke-width:1.5;" width="152" x="735.5" y="316"/><ellipse cx="750.5" cy="332" fill="#ADD1B2" rx="11" ry="11" style="stroke:#A80036;stroke-width:1.0;"/><path d="M749.0781,337.3594 Q747.2188,337.3594 746.125,335.9688 Q745.0313,334.5781 745.0313,331.5938 Q745.0313,329.0625 746.1953,327.4063 Q747.3594,325.75 749.3438,325.75 Q750.8125,325.75 751.2813,325.875 Q751.75,326.0781 751.75,326.0781 Q751.75,326.0781 751.75,326.0078 Q751.75,325.9375 752.3594,325.0156 L753.4063,328.6719 L752.0781,329.0781 Q751.6094,327.5313 750.9453,326.8672 Q750.2813,326.2031 749.2188,326.2031 Q748.8281,326.2031 748.0625,327.7344 Q747.2969,329.2656 747.2969,331.5156 Q747.2969,333.9844 747.9609,335.375 Q748.625,336.7656 749.1563,336.7656 Q750.2188,336.7656 750.9766,336 Q751.7344,335.2344 752.0781,333.5781 L753.4063,334.1719 Q753.0781,335.5781 752.1797,336.4688 Q751.2813,337.3594 749.0781,337.3594 Z " fill="#000000"/><text fill="#000000" font-family="sans-serif" font-size="12" lengthAdjust="spacing" textLength="120" x="764.5" y="337.5576">DoctorInfoServiceImpl</text><line style="stroke:#A80036;stroke-width:1.5;" x1="736.5" x2="886.5" y1="348" y2="348"/><line style="stroke:#A80036;stroke-width:1.5;" x1="736.5" x2="886.5" y1="356" y2="356"/><!--MD5=[75f6c30c97c296a4df08925836f7682a]
class UserInfoController--><rect codeLine="27" fill="#FEFECE" filter="url(#f19c31betod0l0)" height="48" id="UserInfoController" style="stroke:#A80036;stroke-width:1.5;" width="133" x="567" y="439"/><ellipse cx="582" cy="455" fill="#ADD1B2" rx="11" ry="11" style="stroke:#A80036;stroke-width:1.0;"/><path d="M580.5781,460.3594 Q578.7188,460.3594 577.625,458.9688 Q576.5313,457.5781 576.5313,454.5938 Q576.5313,452.0625 577.6953,450.4063 Q578.8594,448.75 580.8438,448.75 Q582.3125,448.75 582.7813,448.875 Q583.25,449.0781 583.25,449.0781 Q583.25,449.0781 583.25,449.0078 Q583.25,448.9375 583.8594,448.0156 L584.9063,451.6719 L583.5781,452.0781 Q583.1094,450.5313 582.4453,449.8672 Q581.7813,449.2031 580.7188,449.2031 Q580.3281,449.2031 579.5625,450.7344 Q578.7969,452.2656 578.7969,454.5156 Q578.7969,456.9844 579.4609,458.375 Q580.125,459.7656 580.6563,459.7656 Q581.7188,459.7656 582.4766,459 Q583.2344,458.2344 583.5781,456.5781 L584.9063,457.1719 Q584.5781,458.5781 583.6797,459.4688 Q582.7813,460.3594 580.5781,460.3594 Z " fill="#000000"/><text fill="#000000" font-family="sans-serif" font-size="12" lengthAdjust="spacing" textLength="101" x="596" y="460.5576">UserInfoController</text><line style="stroke:#A80036;stroke-width:1.5;" x1="568" x2="699" y1="471" y2="471"/><line style="stroke:#A80036;stroke-width:1.5;" x1="568" x2="699" y1="479" y2="479"/><!--MD5=[d74a459bf32a3113f63716cb04cfffeb]
class DoctorInfoController--><rect codeLine="28" fill="#FEFECE" filter="url(#f19c31betod0l0)" height="48" id="DoctorInfoController" style="stroke:#A80036;stroke-width:1.5;" width="142" x="737.5" y="439"/><ellipse cx="752.5" cy="455" fill="#ADD1B2" rx="11" ry="11" style="stroke:#A80036;stroke-width:1.0;"/><path d="M751.0781,460.3594 Q749.2188,460.3594 748.125,458.9688 Q747.0313,457.5781 747.0313,454.5938 Q747.0313,452.0625 748.1953,450.4063 Q749.3594,448.75 751.3438,448.75 Q752.8125,448.75 753.2813,448.875 Q753.75,449.0781 753.75,449.0781 Q753.75,449.0781 753.75,449.0078 Q753.75,448.9375 754.3594,448.0156 L755.4063,451.6719 L754.0781,452.0781 Q753.6094,450.5313 752.9453,449.8672 Q752.2813,449.2031 751.2188,449.2031 Q750.8281,449.2031 750.0625,450.7344 Q749.2969,452.2656 749.2969,454.5156 Q749.2969,456.9844 749.9609,458.375 Q750.625,459.7656 751.1563,459.7656 Q752.2188,459.7656 752.9766,459 Q753.7344,458.2344 754.0781,456.5781 L755.4063,457.1719 Q755.0781,458.5781 754.1797,459.4688 Q753.2813,460.3594 751.0781,460.3594 Z " fill="#000000"/><text fill="#000000" font-family="sans-serif" font-size="12" lengthAdjust="spacing" textLength="110" x="766.5" y="460.5576">DoctorInfoController</text><line style="stroke:#A80036;stroke-width:1.5;" x1="738.5" x2="878.5" y1="471" y2="471"/><line style="stroke:#A80036;stroke-width:1.5;" x1="738.5" x2="878.5" y1="479" y2="479"/><!--MD5=[645d8587175d8f7ad110cd370775931d]
entity API--><ellipse cx="720.5" cy="579" fill="#FEFECE" filter="url(#f19c31betod0l0)" rx="8" ry="8" style="stroke:#A80036;stroke-width:1.5;"/><text fill="#000000" font-family="sans-serif" font-size="14" lengthAdjust="spacing" textLength="56" x="692.5" y="612.0439">对外接口</text><!--MD5=[30c0096eb07acb6d60869f0cb9eb064c]
reverse link GeneralMapperImpl to UserInfoMapperImpl--><path d="M627.5,153.765 C627.5,168.131 627.5,181.978 627.5,192.949 " fill="none" id="GeneralMapperImpl-backto-UserInfoMapperImpl" style="stroke:#A80036;stroke-width:1.0;"/><polygon fill="none" points="620.5,153.357,627.5,133.357,634.5,153.357,620.5,153.357" style="stroke:#A80036;stroke-width:1.0;"/><!--MD5=[696bf2684402456707371df2560d9b7f]
reverse link GeneralMapperImpl to DoctorInfoMapperImpl--><path d="M721.248,145.613 C743.264,162.783 765.146,179.849 781.849,192.876 " fill="none" id="GeneralMapperImpl-backto-DoctorInfoMapperImpl" style="stroke:#A80036;stroke-width:1.0;"/><polygon fill="none" points="716.732,150.968,705.266,133.149,725.342,139.929,716.732,150.968" style="stroke:#A80036;stroke-width:1.0;"/><!--MD5=[3c76402b3114be2935b677e9a4400eee]
reverse link Entity to UserInfo--><path d="M128.645,255.474 C109.32,275.124 86.249,298.583 69.4841,315.63 " fill="none" id="Entity-backto-UserInfo" style="stroke:#A80036;stroke-width:1.0;"/><polygon fill="none" points="123.822,250.395,142.837,241.044,133.804,260.212,123.822,250.395" style="stroke:#A80036;stroke-width:1.0;"/><!--MD5=[60df52471bff93e41cc835181ed6c1e6]
reverse link Entity to DoctorInfo--><path d="M165.5,261.083 C165.5,279.459 165.5,300.178 165.5,315.63 " fill="none" id="Entity-backto-DoctorInfo" style="stroke:#A80036;stroke-width:1.0;"/><polygon fill="none" points="158.5,261.044,165.5,241.044,172.5,261.044,158.5,261.044" style="stroke:#A80036;stroke-width:1.0;"/><!--MD5=[cf8b01e21f4b6b0bb567a1d1a79ec93a]
reverse link IGeneralMapper to Entity--><path codeLine="32" d="M229.317,106.979 C213.823,133.449 192.844,169.287 179.242,192.525 " fill="none" id="IGeneralMapper-backto-Entity" style="stroke:#A80036;stroke-width:1.0;"/><polygon fill="#FFFFFF" points="236.004,95.556,229.5205,98.7127,229.9407,105.9115,236.4242,102.7548,236.004,95.556" style="stroke:#A80036;stroke-width:1.0;"/><!--MD5=[96abb3873b44d17f53eef4d32155df97]
link IGeneralMapper to GeneralMapperImpl--><path codeLine="33" d="M354.705,71.5 C394.399,71.5 434.093,71.5 473.786,71.5 " fill="none" id="IGeneralMapper-GeneralMapperImpl" style="stroke:#A80036;stroke-width:1.0;"/><!--MD5=[9c41b1e7214ab5d8dff6e3a3def0c5ce]
link IUserInfoMapper to UserInfoMapperImpl--><path codeLine="35" d="M520.555,217 C527.778,217 535.002,217 542.226,217 " fill="none" id="IUserInfoMapper-to-UserInfoMapperImpl" style="stroke:#A80036;stroke-width:1.0;"/><polygon fill="#A80036" points="555.228,217,549.228,213,543.228,217,549.228,221,555.228,217" style="stroke:#A80036;stroke-width:1.0;"/><!--MD5=[192b155ba6789f724336564fa18c8bbc]
reverse link DoctorInfoMapperImpl to IDoctorInfoMapper--><path codeLine="36" d="M901.269,217 C908.605,217 915.941,217 923.277,217 " fill="none" id="DoctorInfoMapperImpl-backto-IDoctorInfoMapper" style="stroke:#A80036;stroke-width:1.0;"/><polygon fill="#A80036" points="888.064,217,894.064,221,900.064,217,894.064,213,888.064,217" style="stroke:#A80036;stroke-width:1.0;"/><!--MD5=[b80a42a78eaa925e5887b68314787d54]
link UserInfoMapperImpl to DoctorInfoMapperImpl--><!--MD5=[727abe802ac5cf1bcdf35f4809b66a6d]
link UserInfoMapperImpl to UserInfoServiceImpl--><path codeLine="39" d="M627.69,241.044 C627.867,262.437 628.129,294.132 628.307,315.63 " fill="none" id="UserInfoMapperImpl-UserInfoServiceImpl" style="stroke:#A80036;stroke-width:1.0;"/><!--MD5=[7b060fe94746c6f39e5721043c0a03d0]
reverse link IUserInfoService to UserInfoServiceImpl--><path codeLine="40" d="M542.45,340 C547.204,340 551.958,340 556.711,340 " fill="none" id="IUserInfoService-backto-UserInfoServiceImpl" style="stroke:#A80036;stroke-width:1.0;"/><polygon fill="none" points="542.27,347,522.27,340,542.269,333,542.27,347" style="stroke:#A80036;stroke-width:1.0;"/><!--MD5=[1b488a7d080b094c61c949bfa43a8ebc]
link DoctorInfoMapperImpl to DoctorInfoServiceImpl--><path codeLine="41" d="M811.5,241.044 C811.5,262.437 811.5,294.132 811.5,315.63 " fill="none" id="DoctorInfoMapperImpl-DoctorInfoServiceImpl" style="stroke:#A80036;stroke-width:1.0;"/><!--MD5=[6cb42e894ea0557ccc1aad2ece68ddcd]
link DoctorInfoServiceImpl to IDoctorInfoService--><path codeLine="42" d="M887.637,340 C892.505,340 897.373,340 902.241,340 " fill="none" id="DoctorInfoServiceImpl-to-IDoctorInfoService" style="stroke:#A80036;stroke-width:1.0;"/><polygon fill="none" points="902.254,333,922.254,340,902.254,347,902.254,333" style="stroke:#A80036;stroke-width:1.0;"/><!--MD5=[07ba169fc4eb39a852fbf72887bdcb3f]
link UserInfoServiceImpl to UserInfoController--><path codeLine="44" d="M629.452,364.044 C630.336,385.437 631.646,417.132 632.534,438.63 " fill="none" id="UserInfoServiceImpl-UserInfoController" style="stroke:#A80036;stroke-width:1.0;"/><!--MD5=[191058818f11f268c5185ce66bab7568]
link UserInfoController to API--><path codeLine="45" d="M651.106,487.07 C670.669,512.7036 701.217,552.7323 714.258,569.8214 " fill="none" id="UserInfoController-API" style="stroke:#A80036;stroke-width:1.0;"/><!--MD5=[5deba3cad2132c21fae2cd7783388fbe]
link DoctorInfoServiceImpl to DoctorInfoController--><path codeLine="46" d="M810.929,364.044 C810.398,385.437 809.612,417.132 809.079,438.63 " fill="none" id="DoctorInfoServiceImpl-DoctorInfoController" style="stroke:#A80036;stroke-width:1.0;"/><!--MD5=[a13f57c6d84ca830efdeb15c729073f7]
link DoctorInfoController to API--><path codeLine="47" d="M790.692,487.07 C770.904,512.7036 740.005,552.7323 726.813,569.8214 " fill="none" id="DoctorInfoController-API" style="stroke:#A80036;stroke-width:1.0;"/><!--MD5=[1201c780f57bdc3fb2b011bba1f15ca5]
@startuml project_class_1
class IGeneralMapper<T extends Entity>
abstract class GeneralMapperImpl<T extends IGeneralMapper> {
    + List select(map, orderedKey, isDesc, pageNum, pageSize)
    + Object selectPrimary(map)
    + int insert(list)
    + int update(before, after)
    + int delete(map)
}

interface IUserInfoMapper
class UserInfoMapperImpl extends GeneralMapperImpl
interface IDoctorInfoMapper
class DoctorInfoMapperImpl extends GeneralMapperImpl

interface Entity
class UserInfo extends Entity
class DoctorInfo extends Entity

interface IUserInfoService {
    + CommonResult<Object> login(username, password)
    + CommonResult<Object> logout(username)
}
class UserInfoServiceImpl
interface IDoctorInfoService
class DoctorInfoServiceImpl

class UserInfoController
class DoctorInfoController

() 对外接口 as API

IGeneralMapper o- - Entity
IGeneralMapper -  GeneralMapperImpl

UserInfoMapperImpl *-left- IUserInfoMapper
DoctorInfoMapperImpl *-right- IDoctorInfoMapper
UserInfoMapperImpl -[hidden]right- DoctorInfoMapperImpl

UserInfoMapperImpl - - UserInfoServiceImpl
UserInfoServiceImpl -left-|> IUserInfoService
DoctorInfoMapperImpl - - DoctorInfoServiceImpl
DoctorInfoServiceImpl -right-|> IDoctorInfoService

UserInfoServiceImpl - - UserInfoController
UserInfoController - - API
DoctorInfoServiceImpl - - DoctorInfoController
DoctorInfoController - - API

@enduml

PlantUML version 1.2021.00(Sun Jan 10 18:25:05 GMT+08:00 2021)
(GPL source distribution)
Java Runtime: Java(TM) SE Runtime Environment
JVM: Java HotSpot(TM) 64-Bit Server VM
Default Encoding: GBK
Language: zh
Country: CN
--></g></svg>