<?xml version="1.0" encoding="UTF-8" standalone="no"?><svg xmlns="http://www.w3.org/2000/svg" xmlns:xlink="http://www.w3.org/1999/xlink" contentScriptType="application/ecmascript" contentStyleType="text/css" height="625px" preserveAspectRatio="none" style="width:681px;height:625px;" version="1.1" viewBox="0 0 681 625" width="681px" zoomAndPan="magnify"><defs><filter height="300%" id="f1a78w9z6egfsh" width="300%" x="-1" y="-1"><feGaussianBlur result="blurOut" stdDeviation="2.0"/><feColorMatrix in="blurOut" result="blurOut2" type="matrix" values="0 0 0 0 0 0 0 0 0 0 0 0 0 0 0 0 0 0 .4 0"/><feOffset dx="4.0" dy="4.0" in="blurOut2" result="blurOut3"/><feBlend in="SourceGraphic" in2="blurOut3" mode="normal"/></filter></defs><g><ellipse cx="268" cy="20" fill="#000000" filter="url(#f1a78w9z6egfsh)" rx="10" ry="10" style="stroke:none;stroke-width:1.0;"/><rect fill="#FEFECE" filter="url(#f1a78w9z6egfsh)" height="52.7773" rx="12.5" ry="12.5" style="stroke:#A80036;stroke-width:1.5;" width="160" x="188" y="50"/><text fill="#000000" font-family="sans-serif" font-size="12" lengthAdjust="spacing" textLength="87" x="198" y="73.752">传入必要的参数:</text><text fill="#000000" font-family="sans-serif" font-size="12" lengthAdjust="spacing" textLength="140" x="198" y="90.1406">用户id、医生id和预约日期</text><polygon fill="#FEFECE" filter="url(#f1a78w9z6egfsh)" points="243,122.7773,293,122.7773,305,134.7773,293,146.7773,243,146.7773,231,134.7773,243,122.7773" style="stroke:#A80036;stroke-width:1.5;"/><text fill="#000000" font-family="sans-serif" font-size="11" lengthAdjust="spacing" textLength="50" x="243" y="139.8718">参数为空?</text><text fill="#000000" font-family="sans-serif" font-size="11" lengthAdjust="spacing" textLength="19" x="212" y="132.3604">true</text><text fill="#000000" font-family="sans-serif" font-size="11" lengthAdjust="spacing" textLength="24" x="305" y="132.3604">false</text><rect fill="#FF0000" filter="url(#f1a78w9z6egfsh)" height="36.3887" rx="12.5" ry="12.5" style="stroke:#A80036;stroke-width:1.5;" width="176" x="11" y="156.7773"/><text fill="#000000" font-family="sans-serif" font-size="12" lengthAdjust="spacing" textLength="156" x="21" y="180.5293">返回预约订单的参数不能为空</text><ellipse cx="99" cy="223.166" fill="#FFFFFF" filter="url(#f1a78w9z6egfsh)" rx="10" ry="10" style="stroke:#000000;stroke-width:1.5;"/><line style="stroke:#000000;stroke-width:2.5;" x1="92.8128" x2="105.1872" y1="216.9788" y2="229.3532"/><line style="stroke:#000000;stroke-width:2.5;" x1="105.1872" x2="92.8128" y1="216.9788" y2="229.3532"/><rect fill="#FEFECE" filter="url(#f1a78w9z6egfsh)" height="36.3887" rx="12.5" ry="12.5" style="stroke:#A80036;stroke-width:1.5;" width="116" x="379" y="156.7773"/><text fill="#000000" font-family="sans-serif" font-size="12" lengthAdjust="spacing" textLength="96" x="389" y="180.5293">验证用户是否存在</text><path d="M207,213.166 L207,258.6748 A0,0 0 0 0 207,258.6748 L371,258.6748 A0,0 0 0 0 371,258.6748 L371,239.9204 L391,235.9204 L371,231.9204 L371,223.166 L361,213.166 L207,213.166 A0,0 0 0 0 207,213.166 " fill="#FBFB77" filter="url(#f1a78w9z6egfsh)" style="stroke:#A80036;stroke-width:1.0;"/><path d="M361,213.166 L361,223.166 L371,223.166 L361,213.166 " fill="#FBFB77" style="stroke:#A80036;stroke-width:1.0;"/><text fill="#000000" font-family="sans-serif" font-size="13" lengthAdjust="spacing" textLength="143" x="213" y="233.064">如果查询到的用户或医生</text><text fill="#000000" font-family="sans-serif" font-size="13" lengthAdjust="spacing" textLength="143" x="213" y="250.8184">为空，直接返回异常提醒</text><rect fill="#FEFECE" filter="url(#f1a78w9z6egfsh)" height="36.3887" rx="12.5" ry="12.5" style="stroke:#A80036;stroke-width:1.5;" width="92" x="391" y="217.7261"/><text fill="#000000" font-family="sans-serif" font-size="12" lengthAdjust="spacing" textLength="72" x="401" y="241.478">查询医生对象</text><rect fill="#FEFECE" filter="url(#f1a78w9z6egfsh)" height="52.7773" rx="12.5" ry="12.5" style="stroke:#A80036;stroke-width:1.5;" width="128" x="373" y="278.6748"/><text fill="#000000" font-family="sans-serif" font-size="12" lengthAdjust="spacing" textLength="106" x="383" y="302.4268">通过医生id和日期，</text><text fill="#000000" font-family="sans-serif" font-size="12" lengthAdjust="spacing" textLength="108" x="383" y="318.8154">查询现有的订单数量</text><rect fill="#FEFECE" filter="url(#f1a78w9z6egfsh)" height="36.3887" rx="12.5" ry="12.5" style="stroke:#A80036;stroke-width:1.5;" width="140" x="367" y="351.4521"/><text fill="#000000" font-family="sans-serif" font-size="12" lengthAdjust="spacing" textLength="120" x="377" y="375.2041">校验医生是否还有容量</text><polygon fill="#FEFECE" filter="url(#f1a78w9z6egfsh)" points="412,407.8408,462,407.8408,474,419.8408,462,431.8408,412,431.8408,400,419.8408,412,407.8408" style="stroke:#A80036;stroke-width:1.5;"/><text fill="#000000" font-family="sans-serif" font-size="11" lengthAdjust="spacing" textLength="50" x="412" y="424.9353">容量不足?</text><text fill="#000000" font-family="sans-serif" font-size="11" lengthAdjust="spacing" textLength="19" x="381" y="417.4238">true</text><text fill="#000000" font-family="sans-serif" font-size="11" lengthAdjust="spacing" textLength="24" x="474" y="417.4238">false</text><rect fill="#FF0000" filter="url(#f1a78w9z6egfsh)" height="36.3887" rx="12.5" ry="12.5" style="stroke:#A80036;stroke-width:1.5;" width="152" x="254" y="441.8408"/><text fill="#000000" font-family="sans-serif" font-size="12" lengthAdjust="spacing" textLength="132" x="264" y="465.5928">返回预约容量不足的提示</text><ellipse cx="330" cy="508.2295" fill="#FFFFFF" filter="url(#f1a78w9z6egfsh)" rx="10" ry="10" style="stroke:#000000;stroke-width:1.5;"/><line style="stroke:#000000;stroke-width:2.5;" x1="323.8128" x2="336.1872" y1="502.0423" y2="514.4167"/><line style="stroke:#000000;stroke-width:2.5;" x1="336.1872" x2="323.8128" y1="502.0423" y2="514.4167"/><rect fill="#FEFECE" filter="url(#f1a78w9z6egfsh)" height="36.3887" rx="12.5" ry="12.5" style="stroke:#A80036;stroke-width:1.5;" width="116" x="486" y="441.8408"/><text fill="#000000" font-family="sans-serif" font-size="12" lengthAdjust="spacing" textLength="96" x="496" y="465.5928">插入新的订单数据</text><polygon fill="#FEFECE" filter="url(#f1a78w9z6egfsh)" points="508,498.2295,580,498.2295,592,510.2295,580,522.2295,508,522.2295,496,510.2295,508,498.2295" style="stroke:#A80036;stroke-width:1.5;"/><text fill="#000000" font-family="sans-serif" font-size="11" lengthAdjust="spacing" textLength="72" x="508" y="515.324">插入数据成功?</text><text fill="#000000" font-family="sans-serif" font-size="11" lengthAdjust="spacing" textLength="19" x="477" y="507.8125">true</text><text fill="#000000" font-family="sans-serif" font-size="11" lengthAdjust="spacing" textLength="24" x="592" y="507.8125">false</text><rect fill="#008000" filter="url(#f1a78w9z6egfsh)" height="36.3887" rx="12.5" ry="12.5" style="stroke:#A80036;stroke-width:1.5;" width="92" x="436" y="532.2295"/><text fill="#000000" font-family="sans-serif" font-size="12" lengthAdjust="spacing" textLength="72" x="446" y="555.9814">返回预约成功</text><ellipse cx="482" cy="598.6182" fill="#FFFFFF" filter="url(#f1a78w9z6egfsh)" rx="10" ry="10" style="stroke:#000000;stroke-width:1.5;"/><line style="stroke:#000000;stroke-width:2.5;" x1="475.8128" x2="488.1872" y1="592.431" y2="604.8053"/><line style="stroke:#000000;stroke-width:2.5;" x1="488.1872" x2="475.8128" y1="592.431" y2="604.8053"/><rect fill="#FF0000" filter="url(#f1a78w9z6egfsh)" height="36.3887" rx="12.5" ry="12.5" style="stroke:#A80036;stroke-width:1.5;" width="116" x="548" y="532.2295"/><text fill="#000000" font-family="sans-serif" font-size="12" lengthAdjust="spacing" textLength="96" x="558" y="555.9814">返回预约失败提示</text><ellipse cx="606" cy="598.6182" fill="#FFFFFF" filter="url(#f1a78w9z6egfsh)" rx="10" ry="10" style="stroke:#000000;stroke-width:1.5;"/><line style="stroke:#000000;stroke-width:2.5;" x1="599.8128" x2="612.1872" y1="592.431" y2="604.8053"/><line style="stroke:#000000;stroke-width:2.5;" x1="612.1872" x2="599.8128" y1="592.431" y2="604.8053"/><line style="stroke:#A80036;stroke-width:1.5;" x1="268" x2="268" y1="30" y2="50"/><polygon fill="#A80036" points="264,40,268,50,272,40,268,44" style="stroke:#A80036;stroke-width:1.0;"/><line style="stroke:#A80036;stroke-width:1.5;" x1="99" x2="99" y1="193.166" y2="213.166"/><polygon fill="#A80036" points="95,203.166,99,213.166,103,203.166,99,207.166" style="stroke:#A80036;stroke-width:1.0;"/><line style="stroke:#A80036;stroke-width:1.5;" x1="437" x2="437" y1="193.166" y2="217.7261"/><polygon fill="#A80036" points="433,207.7261,437,217.7261,441,207.7261,437,211.7261" style="stroke:#A80036;stroke-width:1.0;"/><line style="stroke:#A80036;stroke-width:1.5;" x1="437" x2="437" y1="254.1147" y2="278.6748"/><polygon fill="#A80036" points="433,268.6748,437,278.6748,441,268.6748,437,272.6748" style="stroke:#A80036;stroke-width:1.0;"/><line style="stroke:#A80036;stroke-width:1.5;" x1="437" x2="437" y1="331.4521" y2="351.4521"/><polygon fill="#A80036" points="433,341.4521,437,351.4521,441,341.4521,437,345.4521" style="stroke:#A80036;stroke-width:1.0;"/><line style="stroke:#A80036;stroke-width:1.5;" x1="330" x2="330" y1="478.2295" y2="498.2295"/><polygon fill="#A80036" points="326,488.2295,330,498.2295,334,488.2295,330,492.2295" style="stroke:#A80036;stroke-width:1.0;"/><line style="stroke:#A80036;stroke-width:1.5;" x1="482" x2="482" y1="568.6182" y2="588.6182"/><polygon fill="#A80036" points="478,578.6182,482,588.6182,486,578.6182,482,582.6182" style="stroke:#A80036;stroke-width:1.0;"/><line style="stroke:#A80036;stroke-width:1.5;" x1="606" x2="606" y1="568.6182" y2="588.6182"/><polygon fill="#A80036" points="602,578.6182,606,588.6182,610,578.6182,606,582.6182" style="stroke:#A80036;stroke-width:1.0;"/><line style="stroke:#A80036;stroke-width:1.5;" x1="496" x2="482" y1="510.2295" y2="510.2295"/><line style="stroke:#A80036;stroke-width:1.5;" x1="482" x2="482" y1="510.2295" y2="532.2295"/><polygon fill="#A80036" points="478,522.2295,482,532.2295,486,522.2295,482,526.2295" style="stroke:#A80036;stroke-width:1.0;"/><line style="stroke:#A80036;stroke-width:1.5;" x1="592" x2="606" y1="510.2295" y2="510.2295"/><line style="stroke:#A80036;stroke-width:1.5;" x1="606" x2="606" y1="510.2295" y2="532.2295"/><polygon fill="#A80036" points="602,522.2295,606,532.2295,610,522.2295,606,526.2295" style="stroke:#A80036;stroke-width:1.0;"/><line style="stroke:#A80036;stroke-width:1.5;" x1="544" x2="544" y1="478.2295" y2="498.2295"/><polygon fill="#A80036" points="540,488.2295,544,498.2295,548,488.2295,544,492.2295" style="stroke:#A80036;stroke-width:1.0;"/><line style="stroke:#A80036;stroke-width:1.5;" x1="400" x2="330" y1="419.8408" y2="419.8408"/><line style="stroke:#A80036;stroke-width:1.5;" x1="330" x2="330" y1="419.8408" y2="441.8408"/><polygon fill="#A80036" points="326,431.8408,330,441.8408,334,431.8408,330,435.8408" style="stroke:#A80036;stroke-width:1.0;"/><line style="stroke:#A80036;stroke-width:1.5;" x1="474" x2="544" y1="419.8408" y2="419.8408"/><line style="stroke:#A80036;stroke-width:1.5;" x1="544" x2="544" y1="419.8408" y2="441.8408"/><polygon fill="#A80036" points="540,431.8408,544,441.8408,548,431.8408,544,435.8408" style="stroke:#A80036;stroke-width:1.0;"/><line style="stroke:#A80036;stroke-width:1.5;" x1="437" x2="437" y1="387.8408" y2="407.8408"/><polygon fill="#A80036" points="433,397.8408,437,407.8408,441,397.8408,437,401.8408" style="stroke:#A80036;stroke-width:1.0;"/><line style="stroke:#A80036;stroke-width:1.5;" x1="231" x2="99" y1="134.7773" y2="134.7773"/><line style="stroke:#A80036;stroke-width:1.5;" x1="99" x2="99" y1="134.7773" y2="156.7773"/><polygon fill="#A80036" points="95,146.7773,99,156.7773,103,146.7773,99,150.7773" style="stroke:#A80036;stroke-width:1.0;"/><line style="stroke:#A80036;stroke-width:1.5;" x1="305" x2="437" y1="134.7773" y2="134.7773"/><line style="stroke:#A80036;stroke-width:1.5;" x1="437" x2="437" y1="134.7773" y2="156.7773"/><polygon fill="#A80036" points="433,146.7773,437,156.7773,441,146.7773,437,150.7773" style="stroke:#A80036;stroke-width:1.0;"/><line style="stroke:#A80036;stroke-width:1.5;" x1="268" x2="268" y1="102.7773" y2="122.7773"/><polygon fill="#A80036" points="264,112.7773,268,122.7773,272,112.7773,268,116.7773" style="stroke:#A80036;stroke-width:1.0;"/><!--MD5=[d8baf2e1e570c19d4191dba33bfa3e02]
@startuml reservation-activity
start
:传入必要的参数:\n用户id、医生id和预约日期;
if (参数为空?) then (true)
    #Red:返回预约订单的参数不能为空;
    end
else (false)
    :验证用户是否存在;
    :查询医生对象;
    note left
    如果查询到的用户或医生
    为空，直接返回异常提醒
    end note
    :通过医生id和日期，\n查询现有的订单数量;
    :校验医生是否还有容量;
    if (容量不足?) then (true)
        #Red:返回预约容量不足的提示;
        end
    else (false)
        :插入新的订单数据;
        if (插入数据成功?) then (true) 
            #Green:返回预约成功;
            end
        else (false)
            #Red:返回预约失败提示;
            end
        endif
    endif
endif
@enduml

PlantUML version 1.2021.00(Sun Jan 10 18:25:05 GMT+08:00 2021)
(GPL source distribution)
Java Runtime: Java(TM) SE Runtime Environment
JVM: Java HotSpot(TM) 64-Bit Server VM
Default Encoding: GBK
Language: zh
Country: CN
--></g></svg>